<?xml version="1.0" encoding="UTF-8"?>
<svg version="1.1" xmlns="http://www.w3.org/2000/svg" width="714" height="158">
<path d="M0 0 C235.62 0 471.24 0 714 0 C714 52.14 714 104.28 714 158 C478.38 158 242.76 158 0 158 C0 105.86 0 53.72 0 0 Z " fill="#FCFCFC" transform="translate(0,0)"/>
<path d="M0 0 C1.27844788 -0.00058411 2.55689575 -0.00116821 3.87408447 -0.00177002 C7.3718368 -0.00291606 10.86903864 0.02057453 14.36666322 0.04852581 C18.0248244 0.07355831 21.68299869 0.07588291 25.3412323 0.08062744 C32.26500889 0.09305185 39.18853236 0.125866 46.11219758 0.1660254 C53.9960455 0.21075994 61.87990562 0.23273435 69.7638489 0.25280714 C85.97837483 0.29459928 102.19264631 0.36494068 118.40698242 0.45410156 C114.04489281 7.05703474 114.04489281 7.05703474 111.70776367 9.49707031 C110.98472046 10.26253174 110.98472046 10.26253174 110.24707031 11.04345703 C109.74296631 11.57084473 109.2388623 12.09823242 108.71948242 12.64160156 C104.20399509 17.44781487 99.94259248 22.37431003 95.80932617 27.51660156 C92.94947418 31.01352628 89.99931623 34.42336254 87.03198242 37.82910156 C82.93673017 42.53134353 78.86393162 47.24934786 74.84448242 52.01660156 C66.4053198 62.02129 57.86734992 71.93983134 49.28491211 81.82177734 C46.52007405 85.00742409 43.7642159 88.20021723 41.02416992 91.40722656 C40.47954102 92.04466797 39.93491211 92.68210937 39.3737793 93.33886719 C38.34008286 94.55013111 37.30746723 95.76231853 36.27612305 96.97558594 C34.06735472 99.56422566 31.83326805 102.06917808 29.40698242 104.45410156 C30.10553848 104.45774719 30.80409454 104.46139282 31.52381897 104.46514893 C38.12945768 104.5031249 44.7346338 104.56008544 51.33992863 104.6380043 C54.73526412 104.67739737 58.13034347 104.70962521 61.52587891 104.72509766 C65.43579926 104.74323574 69.34500998 104.7932232 73.25463867 104.84472656 C74.46531509 104.8459552 75.67599152 104.84718384 76.9233551 104.84844971 C83.58287639 104.96357367 88.06850748 105.312592 93.40698242 109.45410156 C96.02589594 114.17041334 97.28293004 119.2380588 98.53198242 124.45410156 C98.70084961 125.12699219 98.8697168 125.79988281 99.04370117 126.49316406 C100.09814437 130.79396387 100.79019257 135.06489173 101.40698242 139.45410156 C84.54350273 139.57091245 67.68014933 139.6590785 50.81635761 139.71316242 C42.98615811 139.73894224 35.15621001 139.77408814 27.32617188 139.83129883 C20.50134923 139.88114107 13.67670866 139.91339421 6.85170907 139.92454404 C3.23794433 139.93106157 -0.37529956 139.94637378 -3.98889732 139.98275185 C-8.02343201 140.02303789 -12.05706172 140.0240505 -16.09179688 140.02172852 C-17.2894165 140.0397049 -18.48703613 140.05768127 -19.72094727 140.07620239 C-28.73481155 140.019916 -28.73481155 140.019916 -31.82624817 137.05021667 C-34.10764914 133.69789491 -34.48598189 131.91473271 -34.29223633 127.94628906 C-32.88682739 122.93706616 -29.28883737 119.00891618 -25.59301758 115.45410156 C-24.93301758 115.45410156 -24.27301758 115.45410156 -23.59301758 115.45410156 C-23.18224976 114.56682373 -23.18224976 114.56682373 -22.76318359 113.66162109 C-21.63427313 111.53193021 -20.4541743 109.939962 -18.87036133 108.13378906 C-18.33636719 107.52116211 -17.80237305 106.90853516 -17.25219727 106.27734375 C-16.68404297 105.63442383 -16.11588867 104.99150391 -15.53051758 104.32910156 C-14.65314941 103.3260498 -14.65314941 103.3260498 -13.75805664 102.30273438 C-10.48707249 98.57190842 -7.17917678 94.87682904 -3.84301758 91.20410156 C-0.8354115 87.8897087 2.03127938 84.49751074 4.84448242 81.01660156 C8.758007 76.18104239 12.87201841 71.57423109 17.07885742 66.99316406 C22.83857774 60.7115899 28.34659017 54.20781352 33.88110352 47.72827148 C37.69013512 43.27296274 41.54628097 38.86633179 45.40698242 34.45410156 C21.31698242 34.12410156 -2.77301758 33.79410156 -27.59301758 33.45410156 C-26.09349421 22.95743796 -22.75865311 10.58831252 -15.75508118 2.27154541 C-10.71973387 -0.62259656 -5.70467679 -0.06797147 0 0 Z " fill="#FC7820" transform="translate(35.593017578125,12.5458984375)"/>
<path d="M0 0 C0.82978363 -0.00087616 1.65956726 -0.00175232 2.51449585 -0.00265503 C5.24785641 0.00151382 7.97874004 0.0481296 10.71166992 0.09521484 C12.61023111 0.10640955 14.50880967 0.11494844 16.40739441 0.12094116 C21.39732973 0.14381791 26.38621224 0.2027312 31.37573242 0.26916504 C36.46998859 0.33061248 41.56441537 0.35796143 46.65893555 0.38818359 C56.64963175 0.45247554 66.63954756 0.55484112 76.62963867 0.68115234 C75.63650058 5.92744525 73.71706651 10.24566663 71.44213867 15.05615234 C71.06766602 15.88115234 70.69319336 16.70615234 70.30737305 17.55615234 C67.18639348 24.18757604 63.66741059 30.74021925 56.62963867 33.68115234 C54.25042725 33.92166138 54.25042725 33.92166138 51.58569336 33.90820312 C50.08459015 33.90797653 50.08459015 33.90797653 48.55316162 33.90774536 C47.4801178 33.89742279 46.40707397 33.88710022 45.30151367 33.87646484 C44.19737122 33.87363495 43.09322876 33.87080505 41.95562744 33.8678894 C38.43018747 33.85669723 34.90500182 33.8315941 31.37963867 33.80615234 C28.98901734 33.79612131 26.59839203 33.78699568 24.20776367 33.77880859 C18.34830194 33.75676104 12.48898848 33.72329288 6.62963867 33.68115234 C6.63630051 34.61774185 6.64296234 35.55433136 6.64982605 36.51930237 C6.71073735 45.3614869 6.75565933 54.20362866 6.78507519 63.04597569 C6.80070677 67.59153068 6.82189909 72.1369158 6.85595703 76.68237305 C6.88864013 81.07199198 6.90651054 85.46144787 6.9142704 89.85117912 C6.91979788 91.52286278 6.93059169 93.19453788 6.94682884 94.86615181 C6.96872253 97.21426548 6.97160068 99.5617122 6.97021484 101.90991211 C6.98100067 102.59540131 6.9917865 103.2808905 7.00289917 103.9871521 C6.97109753 108.99259043 5.90077225 112.31090036 3.62963867 116.68115234 C1.63136767 118.56304677 -0.15418711 120.06474216 -2.37036133 121.61865234 C-2.94415527 122.03977295 -3.51794922 122.46089355 -4.10913086 122.89477539 C-5.85329498 124.17076408 -7.61116346 125.42601117 -9.37036133 126.68115234 C-11.32872008 128.11861772 -13.28705552 129.55611484 -15.24536133 130.99365234 C-16.95268391 132.22422257 -18.66092707 133.45351723 -20.37036133 134.68115234 C-21.09739258 135.21095703 -21.82442383 135.74076172 -22.57348633 136.28662109 C-27.25166385 139.68115234 -27.25166385 139.68115234 -28.37036133 139.68115234 C-28.37036133 107.01115234 -28.37036133 74.34115234 -28.37036133 40.68115234 C-34.31036133 42.99115234 -40.25036133 45.30115234 -46.37036133 47.68115234 C-47.03036133 47.35115234 -47.69036133 47.02115234 -48.37036133 46.68115234 C-24.92896932 19.26950655 -24.92896932 19.26950655 -15.58911133 9.14599609 C-13.26159496 6.67216089 -13.26159496 6.67216089 -11.25483704 3.56967163 C-8.11019289 -0.18363984 -4.65093178 -0.12914984 0 0 Z " fill="#3B3B3B" transform="translate(173.370361328125,12.31884765625)"/>
<path d="M0 0 C0.70415039 0.00427002 1.40830078 0.00854004 2.13378906 0.01293945 C9.68253566 0.25894306 14.38419482 2.62292363 19.5625 7.9375 C23.33267431 13.88277487 24.77116819 18.28785553 24.75 25.25 C24.74830811 26.0455127 24.74661621 26.84102539 24.74487305 27.66064453 C24.49214008 35.94927165 21.51142892 40.99639924 15.875 46.9375 C8.84927727 51.02222252 1.92494589 52.60373742 -6.06640625 51.06640625 C-12.69593227 49.26039324 -17.41432746 45.64390108 -20.875 39.6640625 C-24.649555 31.35278275 -25.09981388 22.26647983 -21.921875 13.70703125 C-17.31645998 4.54484995 -10.28248236 -0.09421123 0 0 Z " fill="#3C3C3C" transform="translate(440.8125,31.5)"/>
<path d="M0 0 C15.18 0 30.36 0 46 0 C46 12.30309278 46 12.30309278 42.8125 15.9375 C38.69809697 21.0294385 35.09953157 26.30227998 31.5625 31.8125 C31.0070752 32.67254639 30.45165039 33.53259277 29.87939453 34.41870117 C28.2497492 36.94376912 26.62443987 39.47158102 25 42 C24.0548425 43.46754775 23.10954041 44.9350024 22.1640625 46.40234375 C20.10495123 49.59875978 18.05258685 52.7993561 16 56 C26.23 56 36.46 56 47 56 C47 59.63 47 63.26 47 67 C31.16 67 15.32 67 -1 67 C-1 55.75154852 -1 55.75154852 1.421875 52.28125 C1.94716797 51.50297852 2.47246094 50.72470703 3.01367188 49.92285156 C3.58666016 49.12331055 4.15964844 48.32376953 4.75 47.5 C5.62495117 46.21947754 5.62495117 46.21947754 6.51757812 44.91308594 C7.72862262 43.14224364 8.9487658 41.37759092 10.17773438 39.61914062 C12.48700072 36.30003433 14.72698012 32.93778447 16.96191406 29.56835938 C17.9545601 28.07214243 18.95103357 26.57845439 19.95214844 25.08789062 C20.41137695 24.40404297 20.87060547 23.72019531 21.34375 23.015625 C21.73755859 22.43071289 22.13136719 21.84580078 22.53710938 21.24316406 C24.74246059 17.86152739 26.86028455 14.42354471 29 11 C19.43 11 9.86 11 0 11 C0 7.37 0 3.74 0 0 Z " fill="#3B3B3A" transform="translate(280,14)"/>
<path d="M0 0 C5.40102216 3.19762009 7.5863614 6.69658419 9.5625 12.625 C10.3125 16.875 10.3125 16.875 10.3125 26.875 C-0.2475 26.875 -10.8075 26.875 -21.6875 26.875 C-19.44582993 33.48106161 -19.44582993 33.48106161 -16.5 35.8125 C-11.321304 37.76889627 -6.84847241 37.58309557 -1.875 35.375 C-0.823125 34.88 0.22875 34.385 1.3125 33.875 C2.3025 33.875 3.2925 33.875 4.3125 33.875 C8.3125 39.01785714 8.3125 39.01785714 8.3125 42.875 C6.75398245 43.69511312 5.19048284 44.50576213 3.625 45.3125 C2.31982422 45.99119141 2.31982422 45.99119141 0.98828125 46.68359375 C-6.03593404 49.81116406 -13.02378106 49.62513951 -20.25 47.375 C-27.31443564 44.60213553 -30.72677767 40.03745537 -34.625 33.75 C-37.10607668 27.04646983 -36.76464773 18.09129814 -34.5 11.375 C-31.75095782 6.06650475 -28.46641547 1.39491897 -23.02734375 -1.42578125 C-15.55304 -3.6593378 -7.07859834 -3.24523277 0 0 Z " fill="#3E3D3D" transform="translate(365.6875,34.125)"/>
<path d="M0 0 C4.62 0 9.24 0 14 0 C14.01981934 1.04454346 14.03963867 2.08908691 14.06005859 3.1652832 C14.13612114 7.0400405 14.22483728 10.91442257 14.31738281 14.78881836 C14.35566993 16.46582634 14.39052331 18.14291638 14.421875 19.82006836 C14.46753179 22.23060432 14.5255241 24.64057557 14.5859375 27.05078125 C14.59748871 27.80087967 14.60903992 28.55097809 14.62094116 29.32380676 C14.72695459 33.06127713 14.87619082 34.81428623 17 38 C21.08993664 38.55056839 23.45660657 38.26248877 27.18408203 36.46191406 C30.32722471 34.20805849 30.32722471 34.20805849 30.77294922 30.42480469 C30.81370318 29.00770788 30.82251622 27.58944559 30.8046875 26.171875 C30.81839386 25.42286926 30.83210022 24.67386353 30.84622192 23.90216064 C30.88351633 21.51749576 30.8798083 19.13491504 30.875 16.75 C30.89312753 15.13017579 30.91393042 13.51037916 30.9375 11.890625 C30.98934434 7.92673422 31.00443141 3.96421122 31 0 C35.62 0 40.24 0 45 0 C45 16.17 45 32.34 45 49 C41.04 49 37.08 49 33 49 C32.67 47.35 32.34 45.7 32 44 C30.96875 44.78375 29.9375 45.5675 28.875 46.375 C23.49313917 50.18985316 18.64139054 51.6870404 12 51 C6.0727053 49.04276948 3.03089723 46.57495635 0 41 C-0.52734079 37.80387404 -0.46768765 34.67732024 -0.390625 31.4453125 C-0.38496521 30.54376434 -0.37930542 29.64221619 -0.37347412 28.71334839 C-0.35118555 25.85001237 -0.30100389 22.98795411 -0.25 20.125 C-0.22992525 18.17710148 -0.21167619 16.22918323 -0.1953125 14.28125 C-0.15134547 9.5203453 -0.08237063 4.76038886 0 0 Z " fill="#414140" transform="translate(575,32)"/>
<path d="M0 0 C16.83 0 33.66 0 51 0 C51 3.63 51 7.26 51 11 C44.73 11 38.46 11 32 11 C32 29.48 32 47.96 32 67 C27.71 67 23.42 67 19 67 C19 48.52 19 30.04 19 11 C12.73 11 6.46 11 0 11 C0 7.37 0 3.74 0 0 Z " fill="#393939" transform="translate(486,14)"/>
<path d="M0 0 C1.12523071 0.00483398 1.12523071 0.00483398 2.27319336 0.00976562 C8.37702889 0.16234507 13.42779865 1.47392972 18.8125 4.4375 C18.8125 8.71459699 18.10629749 9.99680376 15.8125 13.4375 C13.29771076 13.01836846 11.18187558 12.63828092 8.9296875 11.4140625 C6.51506403 10.30030629 4.83352282 10.16980085 2.1875 10.1875 C1.02347656 10.17976563 1.02347656 10.17976563 -0.1640625 10.171875 C-2.41438411 10.25834646 -2.41438411 10.25834646 -4.1875 12.4375 C-4.12299374 14.51367159 -4.12299374 14.51367159 -3.1875 16.4375 C-0.52031208 17.59495891 2.05995118 18.52707427 4.8125 19.4375 C15.62408744 23.27609682 15.62408744 23.27609682 19.5625 27.125 C21.28625008 31.69293771 21.57390516 35.61788384 20.8125 40.4375 C18.28833865 45.88968851 15.06649327 47.94876635 9.8125 50.4375 C1.50053892 52.99502649 -6.74287855 51.2482717 -14.5625 48.0625 C-17.28479552 46.37726944 -18.1597372 45.41801212 -19.1875 42.4375 C-17.2075 39.4675 -17.2075 39.4675 -15.1875 36.4375 C-12.88316485 36.96926965 -10.81746281 37.59093005 -8.625 38.5 C-3.80018958 39.81585739 0.84231449 39.59668744 5.8125 39.4375 C6.1425 37.7875 6.4725 36.1375 6.8125 34.4375 C5.45125 33.8496875 5.45125 33.8496875 4.0625 33.25 C3.43085937 32.97414062 2.79921875 32.69828125 2.1484375 32.4140625 C0.39855179 31.68250493 -1.3708212 30.99726705 -3.1484375 30.3359375 C-10.29848523 27.59949948 -14.67715976 25.45818048 -18.1875 18.4375 C-18.24726897 12.4606027 -17.15292638 8.06383078 -13.1875 3.4375 C-8.98710735 0.2082073 -5.13350879 -0.0680912 0 0 Z " fill="#3F3E3E" transform="translate(647.1875,31.5625)"/>
<path d="M0 0 C3.96 0 7.92 0 12 0 C12 4.62 12 9.24 12 14 C16.29 14 20.58 14 25 14 C25 17.3 25 20.6 25 24 C21.04 24 17.08 24 13 24 C13.14029459 28.12525788 13.28697311 32.25011392 13.4375 36.375 C13.47681641 37.550625 13.51613281 38.72625 13.55664062 39.9375 C13.59853516 41.05898438 13.64042969 42.18046875 13.68359375 43.3359375 C13.72025146 44.37282715 13.75690918 45.4097168 13.79467773 46.47802734 C13.84164223 48.99425166 13.84164223 48.99425166 15 51 C17.58605332 51.4683265 17.58605332 51.4683265 20.5625 51.625 C21.57441406 51.69976562 22.58632813 51.77453125 23.62890625 51.8515625 C24.41136719 51.90054688 25.19382812 51.94953125 26 52 C27.1577506 55.47325181 27.06866652 58.36067448 27 62 C23.22754058 63.17769672 19.55909891 63.23790132 15.625 63.3125 C14.33851563 63.34988281 13.05203125 63.38726562 11.7265625 63.42578125 C7.29332843 62.9192587 5.3219601 61.96295865 2 59 C-2.26513398 52.48158769 -1.33597454 45.10424521 -1.1875 37.5625 C-1.17396484 36.25861328 -1.16042969 34.95472656 -1.14648438 33.61132812 C-1.11127334 30.40712378 -1.06202094 27.20377895 -1 24 C-3.31 24 -5.62 24 -8 24 C-8 20.7 -8 17.4 -8 14 C-5.36 14 -2.72 14 0 14 C0 9.38 0 4.76 0 0 Z " fill="#3F3F3F" transform="translate(679,19)"/>
<path d="M0 0 C21.6 0 21.6 0 30.5 5.5625 C33.0742996 9.74573685 32.83017109 14.25113998 32 19 C29.47429367 22.41311667 28.00086696 23.66637768 24 25 C24.45439453 25.7113208 24.45439453 25.7113208 24.91796875 26.43701172 C26.28331246 28.58007621 27.64172139 30.72745138 29 32.875 C29.47695313 33.62136719 29.95390625 34.36773437 30.4453125 35.13671875 C30.89648438 35.85214844 31.34765625 36.56757813 31.8125 37.3046875 C32.23144531 37.96452637 32.65039062 38.62436523 33.08203125 39.30419922 C34 41 34 41 34 43 C30.7 43 27.4 43 24 43 C23.50371094 41.92878906 23.00742187 40.85757813 22.49609375 39.75390625 C21.81126267 38.35610035 21.12498859 36.95900077 20.4375 35.5625 C20.11458984 34.85544922 19.79167969 34.14839844 19.45898438 33.41992188 C19.12060547 32.74638672 18.78222656 32.07285156 18.43359375 31.37890625 C18.13509521 30.7557251 17.83659668 30.13254395 17.52905273 29.49047852 C15.50839716 27.22770917 15.50839716 27.22770917 9 27 C9 32.28 9 37.56 9 43 C6.03 43 3.06 43 0 43 C0 28.81 0 14.62 0 0 Z " fill="#FA7E2C" transform="translate(313,105)"/>
<path d="M0 0 C3.50625 -0.0825 7.0125 -0.165 10.625 -0.25 C11.71893066 -0.28641602 12.81286133 -0.32283203 13.93994141 -0.36035156 C19.98966548 -0.42916149 23.39666491 -0.02233163 28 4 C31.10518195 7.10518195 30.96067459 9.51236497 31.3125 13.875 C31.24765587 18.22766244 29.86356861 20.67206891 27 24 C22.8657594 27.13021074 19.80679377 27.3310316 14.6875 27.1875 C11.3771875 27.0946875 11.3771875 27.0946875 8 27 C8 31.95 8 36.9 8 42 C5.36 42 2.72 42 0 42 C0 28.14 0 14.28 0 0 Z " fill="#F87824" transform="translate(352,106)"/>
<path d="M0 0 C3.96 0 7.92 0 12 0 C12.66 1.98 13.32 3.96 14 6 C14.38929688 5.566875 14.77859375 5.13375 15.1796875 4.6875 C17.89220498 1.9874826 19.81898871 0.17483767 23.69140625 -0.3984375 C26.13113285 -0.3776148 28.5683841 -0.19985884 31 0 C31 3.96 31 7.92 31 12 C28.00520833 12.42317708 25.01041667 12.84635417 22.015625 13.26953125 C18.7389335 14.06323761 17.3344029 14.58918053 15 17 C14.57285919 19.56494618 14.3952377 21.72322205 14.390625 24.29296875 C14.37408875 24.99899734 14.35755249 25.70502594 14.34051514 26.43244934 C14.29198712 28.68422092 14.27065562 30.93531709 14.25 33.1875 C14.22184401 34.71552886 14.19191709 36.24352619 14.16015625 37.77148438 C14.08289405 41.51463484 14.04242896 45.25564438 14 49 C9.38 49 4.76 49 0 49 C0 32.83 0 16.66 0 0 Z " fill="#40403F" transform="translate(537,32)"/>
<path d="M0 0 C3.96 0 7.92 0 12 0 C12 2.31 12 4.62 12 7 C12.47050781 6.57847656 12.94101562 6.15695313 13.42578125 5.72265625 C14.04839844 5.17480469 14.67101562 4.62695312 15.3125 4.0625 C15.92738281 3.51722656 16.54226563 2.97195312 17.17578125 2.41015625 C20.2581204 0.02744868 22.93267412 -0.11691777 26.6875 -0.0625 C28.8221875 -0.0315625 28.8221875 -0.0315625 31 0 C31 3.96 31 7.92 31 12 C28.29817708 12.13020833 25.59635417 12.26041667 22.89453125 12.390625 C19.19814553 13.16881147 17.63764185 14.2947822 15 17 C14.22021677 20.47008913 14.22021677 20.47008913 14.29296875 24.390625 C14.27784744 25.09523865 14.26272614 25.79985229 14.24714661 26.52581787 C14.20429485 28.76753805 14.19543532 31.00791122 14.1875 33.25 C14.16435331 34.77347325 14.13898759 36.2969145 14.11132812 37.8203125 C14.04433428 41.54760648 14.02335835 45.27115807 14 49 C9.38 49 4.76 49 0 49 C0 32.83 0 16.66 0 0 Z " fill="#404040" transform="translate(384,32)"/>
<path d="M0 0 C4.599375 -0.020625 9.19875 -0.04125 13.9375 -0.0625 C15.39019287 -0.071604 16.84288574 -0.08070801 18.33959961 -0.09008789 C19.47405518 -0.09258545 20.60851074 -0.09508301 21.77734375 -0.09765625 C23.52905884 -0.10551147 23.52905884 -0.10551147 25.31616211 -0.11352539 C28 0 28 0 29 1 C29 3.31 29 5.62 29 8 C22.4 8 15.8 8 9 8 C9 11.3 9 14.6 9 18 C14.28 18 19.56 18 25 18 C25 20.31 25 22.62 25 25 C19.72 25 14.44 25 9 25 C9 28.3 9 31.6 9 35 C15.6 35 22.2 35 29 35 C29 37.64 29 40.28 29 43 C19.43 43 9.86 43 0 43 C0 28.81 0 14.62 0 0 Z " fill="#FC8531" transform="translate(278,105)"/>
<path d="M0 0 C4.53258911 5.3709871 4.8731586 8.81183287 4.83203125 15.671875 C4.33359107 20.76261067 2.09841052 23.10471448 -1.4609375 26.6640625 C-4.51751445 27.23454346 -7.40014944 27.19269602 -10.4609375 26.6640625 C-13.74269068 24.13437776 -15.15337527 22.58674919 -16.4609375 18.6640625 C-17.63699596 5.13939026 -17.63699596 5.13939026 -14.2109375 0.8515625 C-9.9527922 -2.53559853 -4.57695752 -4.18534618 0 0 Z " fill="#F6F6F6" transform="translate(447.4609375,44.3359375)"/>
<path d="M0 0 C2.4375 2.25 2.4375 2.25 4 5 C4 6.65 4 8.3 4 10 C-2.27 10 -8.54 10 -15 10 C-14 3 -14 3 -12.6171875 1.40625 C-8.09630354 -0.94542058 -5.06164402 -1.6235462 0 0 Z " fill="#F3F3F3" transform="translate(359,42)"/>
<path d="M0 0 C1.5675 -0.061875 3.135 -0.12375 4.75 -0.1875 C6.07257813 -0.23970703 6.07257813 -0.23970703 7.421875 -0.29296875 C10.5125515 0.05824449 11.81474628 0.80973423 14 3 C14.5 6.5 14.5 6.5 14 10 C11.81474628 12.19026577 10.5125515 12.94175551 7.421875 13.29296875 C6.54015625 13.25816406 5.6584375 13.22335938 4.75 13.1875 C3.1825 13.125625 1.615 13.06375 0 13 C0 8.71 0 4.42 0 0 Z " fill="#FDF5EF" transform="translate(360,113)"/>
<path d="M0 0 C10.48788962 -0.37016081 10.48788962 -0.37016081 12.83203125 1.32421875 C14.64548905 3.92613646 14.38474673 5.92202612 14 9 C12.83203125 10.67578125 12.83203125 10.67578125 11 12 C7.29631297 12.40199208 3.73655831 12.13187853 0 12 C0 8.04 0 4.08 0 0 Z " fill="#FDF7F3" transform="translate(322,113)"/>
<path d="M0 0 C0.66 0.33 1.32 0.66 2 1 C-0.97 4.3 -3.94 7.6 -7 11 C-7.66 10.67 -8.32 10.34 -9 10 C-6.03 6.7 -3.06 3.4 0 0 Z " fill="#FA8135" transform="translate(34,101)"/>
<path d="M0 0 C1.5 1.375 1.5 1.375 3 3 C3 3.66 3 4.32 3 5 C-0.3 5 -3.6 5 -7 5 C-7 4.67 -7 4.34 -7 4 C-4.69 4 -2.38 4 0 4 C0 2.68 0 1.36 0 0 Z " fill="#FB954C" transform="translate(344,143)"/>
</svg>
