<?xml version="1.0" encoding="UTF-8"?>
<svg version="1.1" xmlns="http://www.w3.org/2000/svg" width="262" height="154">
<path d="M0 0 C86.46 0 172.92 0 262 0 C262 50.82 262 101.64 262 154 C175.54 154 89.08 154 0 154 C0 103.18 0 52.36 0 0 Z " fill="#FDFCFB" transform="translate(0,0)"/>
<path d="M0 0 C1.08113571 -0.00137466 2.16227142 -0.00274933 3.27616882 -0.00416565 C4.46227753 -0.00057037 5.64838623 0.0030249 6.87043762 0.00672913 C8.11933273 0.0065831 9.36822784 0.00643707 10.65496826 0.00628662 C14.08032478 0.00686439 17.50562121 0.01188367 20.93096709 0.01886058 C24.51042361 0.02510696 28.08988091 0.02569893 31.66934204 0.02688599 C38.44786601 0.02999551 45.22637387 0.0382038 52.00489074 0.04823548 C59.72186083 0.05940837 67.43883169 0.06491003 75.15580785 0.06993091 C91.03050172 0.08038671 106.90517951 0.09797884 122.77986145 0.12025452 C120.91954024 4.13865601 118.25250513 7.01231888 115.21736145 10.18275452 C110.56138905 15.12880996 106.17999443 20.20855742 101.9243927 25.50697327 C99.7811119 28.11873075 97.55605815 30.62390753 95.27986145 33.12025452 C92.18430949 36.51624133 89.22834938 39.98196982 86.34236145 43.55775452 C83.26649557 47.36112954 80.09232979 51.02108103 76.77986145 54.62025452 C72.73861076 59.0158918 68.93152644 63.54451097 65.17829895 68.18666077 C60.4879939 73.92349968 55.62211139 79.51168852 50.77986145 85.12025452 C50.20026672 85.79298401 49.620672 86.4657135 49.02351379 87.15882874 C47.25629244 89.20976725 45.48718521 91.25906151 43.71736145 93.30775452 C42.89510071 94.26149963 42.89510071 94.26149963 42.05622864 95.23451233 C41.5409259 95.82973694 41.02562317 96.42496155 40.4947052 97.03822327 C39.81589294 97.82362488 39.81589294 97.82362488 39.12336731 98.62489319 C37.72638771 100.17977235 36.26259137 101.64746261 34.77986145 103.12025452 C35.4931662 103.12167953 36.20647095 103.12310455 36.94139099 103.12457275 C43.67982572 103.14243867 50.41764763 103.18415747 57.15577126 103.25234509 C60.61958515 103.28656516 64.08296039 103.31171709 67.54695129 103.31581116 C71.53384011 103.32092744 75.51980178 103.36608601 79.50642395 103.41322327 C80.74413544 103.40929062 81.98184692 103.40535797 83.25706482 103.40130615 C92.85905908 103.56379836 92.85905908 103.56379836 96.54060364 106.5504303 C99.6492424 110.11797627 99.6492424 110.11797627 100.40486145 112.80775452 C100.62013489 113.5644342 100.83540833 114.32111389 101.0572052 115.10072327 C105.77986145 134.83376803 105.77986145 134.83376803 105.77986145 137.12025452 C89.04676263 137.23706705 72.31379611 137.32523225 55.58038807 137.37931538 C47.81072165 137.40509486 40.0413086 137.44024009 32.27180481 137.49745178 C25.49971987 137.54729508 18.72781842 137.57954741 11.95555514 137.59069699 C8.36973428 137.59721435 4.78443835 137.6125254 1.19878578 137.6489048 C-2.8046177 137.68919299 -6.80710919 137.69020339 -10.81071472 137.68788147 C-12.59311806 137.71484604 -12.59311806 137.71484604 -14.41152954 137.74235535 C-22.42648424 137.69192103 -22.42648424 137.69192103 -26.45275879 134.79180908 C-28.86231468 131.14954715 -29.02201309 129.42121796 -28.22013855 125.12025452 C-26.62926842 122.11143492 -24.44479646 119.68222517 -22.22013855 117.12025452 C-21.22761027 115.95648257 -20.23545486 114.79239255 -19.24357605 113.62806702 C-14.39737557 107.97115848 -9.48044943 102.38247703 -4.47013855 96.87025452 C-1.46253247 93.55586166 1.40415841 90.16366369 4.21736145 86.68275452 C8.13205193 81.84575476 12.24726128 77.2375841 16.4556427 72.65541077 C20.63878914 68.09261742 24.67449018 63.40425105 28.7134552 58.71400452 C29.81859916 57.43247436 30.92407842 56.15123329 32.02986145 54.87025452 C32.58552795 54.22644836 33.14119446 53.58264221 33.71369934 52.91932678 C38.28082054 47.64936869 42.97357299 42.50964722 47.73298645 37.41322327 C49.79894534 35.30042935 49.79894534 35.30042935 50.77986145 33.12025452 C26.35986145 33.12025452 1.93986145 33.12025452 -23.22013855 33.12025452 C-15.72013855 8.12025452 -15.72013855 8.12025452 -8.22013855 1.12025452 C-5.18757832 0.10940111 -3.17100671 -0.00310579 0 0 Z " fill="#00663D" transform="translate(38.22013854980469,7.8797454833984375)"/>
<path d="M0 0 C0.78043167 0.01797638 1.56086334 0.03595276 2.36494446 0.05447388 C3.60940086 0.05337868 3.60940086 0.05337868 4.8789978 0.05226135 C7.61749467 0.05574104 10.35428434 0.09461878 13.09248352 0.13381958 C14.99247814 0.14314638 16.89248479 0.15026312 18.79249573 0.15525818 C23.7905148 0.17433844 28.78780601 0.22344822 33.78553772 0.27877808 C38.88645074 0.32994832 43.98748151 0.35276747 49.08857727 0.37796021 C59.09540728 0.43156585 69.10169735 0.51689123 79.10810852 0.62210083 C78.80139041 2.06680662 78.49075606 3.51068135 78.1784668 4.95419312 C78.00590205 5.75833775 77.83333731 6.56248238 77.65554333 7.39099503 C76.57165142 11.8084663 74.2106758 15.48611387 71.92060852 19.37210083 C71.23514954 20.60766724 71.23514954 20.60766724 70.5358429 21.86819458 C70.07113586 22.66870239 69.60642883 23.46921021 69.12763977 24.29397583 C68.71618713 25.00650513 68.3047345 25.71903442 67.8808136 26.45315552 C64.70591872 30.3377122 61.64103094 33.19576421 56.55328369 34.05212402 C53.51830774 34.1997102 50.52465619 34.18450617 47.48701477 34.11038208 C45.83716835 34.09976997 45.83716835 34.09976997 44.1539917 34.08894348 C40.65882371 34.06107059 37.16528809 33.99834163 33.67060852 33.93460083 C31.29367861 33.90950895 28.91672347 33.88669734 26.53974915 33.86624146 C20.72865019 33.81126723 14.91849601 33.72771115 9.10810852 33.62210083 C9.12143219 34.58374649 9.13475586 35.54539215 9.14848328 36.53617859 C9.2702913 45.61370596 9.36014132 54.69106681 9.41898155 63.76922703 C9.45024973 68.43610853 9.49263905 73.10232853 9.56074524 77.76882935 C9.62610034 82.27520656 9.66184851 86.78094891 9.67737198 91.2877636 C9.68842952 93.00418018 9.71002317 94.72056331 9.74248886 96.43670845 C10.01745184 111.5781671 10.01745184 111.5781671 6.31855774 116.03982544 C4.66917419 117.49549866 4.66917419 117.49549866 3.10810852 118.62210083 C2.42071594 119.21120239 1.73332336 119.80030396 1.02510071 120.40725708 C0.40796204 120.82878052 -0.20917664 121.25030396 -0.84501648 121.68460083 C-1.54231873 122.16832153 -2.23962097 122.65204224 -2.95805359 123.15042114 C-4.03905334 123.87890259 -4.03905334 123.87890259 -5.14189148 124.62210083 C-5.88898376 125.1361145 -6.63607605 125.65012817 -7.4058075 126.17971802 C-8.88661168 127.19844206 -10.36970033 128.21385497 -11.85527039 129.22561646 C-13.63692306 130.44727233 -15.40016442 131.68859338 -17.15361023 132.95022583 C-18.03661804 133.58444458 -18.91962585 134.21866333 -19.82939148 134.87210083 C-20.58091492 135.41350708 -21.33243835 135.95491333 -22.10673523 136.51272583 C-23.89189148 137.62210083 -23.89189148 137.62210083 -25.89189148 137.62210083 C-25.89189148 105.61210083 -25.89189148 73.60210083 -25.89189148 40.62210083 C-32.82189148 43.09710083 -32.82189148 43.09710083 -39.89189148 45.62210083 C-42.36689148 46.11710083 -42.36689148 46.11710083 -44.89189148 46.62210083 C-37.10391667 35.80546916 -28.14029595 25.90828067 -19.14579773 16.09085083 C-13.30419586 9.89269985 -13.30419586 9.89269985 -8.30979919 3.04185486 C-5.50721529 0.2371309 -3.89262513 0.03712391 0 0 Z " fill="#3C3C3C" transform="translate(177.8918914794922,7.377899169921875)"/>
</svg>
